<svg width="50" height="50" viewBox="0 0 50 50" fill="none" xmlns="http://www.w3.org/2000/svg">
    <circle cx="25" cy="25" r="24" fill="white" stroke="#495AFF" stroke-width="2" />
    <path
        d="M28.3566 16C28.4892 16 28.6164 16.0527 28.7102 16.1464L31.5386 18.9749C31.7338 19.1701 31.7338 19.4867 31.5386 19.682L22.3462 28.8744C22.2834 28.9372 22.205 28.9821 22.119 29.0046L18.2906 30.0046C18.1188 30.0494 17.9362 29.9999 17.8107 29.8744C17.6851 29.7488 17.6356 29.5662 17.6804 29.3945L18.6804 25.566C18.7029 25.4801 18.7478 25.4017 18.8107 25.3388L28.003 16.1464C28.0968 16.0527 28.224 16 28.3566 16Z"
        fill="#495AFF" />
    <path
        d="M17.75 31.75C17.3358 31.75 17 32.0858 17 32.5C17 32.9142 17.3358 33.25 17.75 33.25H32.75C33.1642 33.25 33.5 32.9142 33.5 32.5C33.5 32.0858 33.1642 31.75 32.75 31.75H17.75Z"
        fill="#495AFF" />
</svg>
    