<svg width="24" height="24" viewBox="0 0 24 24" fill="none" xmlns="http://www.w3.org/2000/svg">
    <g clip-path="url(#clip0_2008_1177)">

        <path
            d="M0.566625 8.34788C0.199031 9.4995 -4.68667e-05 10.7264 8.27601e-09 11.9999C-4.68667e-05 13.2735 0.199078 14.5005 0.566672 15.6521L12 16.1739L23.4333 15.6522C23.8009 14.5005 24.0001 13.2735 24.0001 12C24 10.7264 23.8009 9.4995 23.4333 8.34783L12 7.82611L0.566625 8.34788Z"
            fill="#338AF3" />
        <path
            d="M23.4332 8.34783L11.9999 7.82611L0.5665 8.34783C0.457563 8.68927 0.363766 9.03741 0.285156 9.39131H23.7144C23.6359 9.03736 23.5421 8.68917 23.4332 8.34783Z"
            fill="#338AF3" />
        <path
            d="M0.285156 14.609C0.363672 14.9629 0.457469 15.311 0.566406 15.6524L0.567531 15.6525L11.9997 16.1742L23.433 15.6525C23.542 15.3111 23.6358 14.9629 23.7143 14.609H0.285156V14.609Z"
            fill="#338AF3" />
        <path
            d="M12.0007 24.0007C17.3545 24.0007 21.8888 20.4943 23.434 15.6529H0.567383C2.11262 20.4943 6.64693 24.0007 12.0007 24.0007Z"
            fill="#F02222" />
        <path
            d="M11.9997 -0.000823974C6.64595 -0.000777099 2.11173 3.50561 0.566406 8.347L23.433 8.34705C21.8879 3.50557 17.3536 -0.000870849 11.9997 -0.000823974Z"
            fill="#F6F8FB" />
    </g>
    <defs>
        <clipPath id="clip0_2008_1177">
            <rect width="24" height="24" fill="white" />
        </clipPath>
    </defs>
</svg>