<svg width="32" height="32" viewBox="0 0 32 32" fill="none" xmlns="http://www.w3.org/2000/svg">
<path d="M12.5005 27.1995C12.6983 27.3762 12.9981 27.1837 12.9239 26.9292L9.5646 15.4116C9.50205 15.1971 9.31244 15.0445 9.08963 15.0281C8.54597 14.9882 8.00257 14.9435 7.45949 14.8942L2.96559 14.4856C2.75579 14.4665 2.60811 14.6866 2.70744 14.8724C5.1382 19.4188 8.63847 23.7508 12.5005 27.1995Z" fill="#005CE8"/>
<path d="M15.7962 29.6343C15.8233 29.7272 15.9032 29.7971 16 29.7971C16.0968 29.7971 16.1768 29.7272 16.2039 29.6343L20.3157 15.5365C20.367 15.3608 20.23 15.1869 20.0472 15.1947C17.3503 15.3105 14.6498 15.3105 11.9529 15.1947C11.7701 15.1869 11.6331 15.3608 11.6844 15.5365L15.7962 29.6343Z" fill="#005CE8"/>
<path d="M19.0762 26.9291C19.0019 27.1837 19.3018 27.3762 19.4996 27.1995C23.3616 23.7508 26.8619 19.4188 29.2926 14.8724C29.392 14.6866 29.2443 14.4665 29.0345 14.4856L24.5406 14.8942C23.9975 14.9435 23.4541 14.9882 22.9105 15.0281C22.6877 15.0445 22.498 15.1971 22.4355 15.4116L19.0762 26.9291Z" fill="#005CE8"/>
<path d="M29.068 12.4743C29.2712 12.4559 29.3792 12.2253 29.2634 12.0574L24.9463 5.79764C24.573 5.25633 23.9575 4.93311 23.2999 4.93311H19.9804C19.7909 4.93311 19.6619 5.12521 19.7335 5.30063L22.7425 12.6651C22.83 12.8792 23.0454 13.0127 23.276 12.9944C23.6373 12.9659 23.9985 12.9352 24.3595 12.9024L29.068 12.4743Z" fill="#005CE8"/>
<path d="M17.5535 5.26131C17.4706 5.06257 17.2765 4.93311 17.0611 4.93311H14.9389C14.7236 4.93311 14.5294 5.06257 14.4466 5.26131L11.3032 12.8055C11.2323 12.9756 11.3513 13.1646 11.5354 13.1736C14.5101 13.3176 17.49 13.3176 20.4646 13.1736C20.6488 13.1646 20.7677 12.9756 20.6969 12.8055L17.5535 5.26131Z" fill="#005CE8"/>
<path d="M12.2666 5.30063C12.3382 5.12521 12.2092 4.93311 12.0197 4.93311H8.70017C8.04261 4.93311 7.42706 5.25633 7.05374 5.79764L2.73669 12.0574C2.62086 12.2253 2.72888 12.4559 2.93207 12.4743L7.64056 12.9024C8.00161 12.9352 8.3628 12.9659 8.72412 12.9944C8.95464 13.0127 9.1701 12.8792 9.25756 12.6651L12.2666 5.30063Z" fill="#005CE8"/>
</svg>
